<?xml version="1.0" standalone="no"?>
<!DOCTYPE svg PUBLIC "-//W3C//DTD SVG 20010904//EN"
 "http://www.w3.org/TR/2001/REC-SVG-20010904/DTD/svg10.dtd">
<svg version="1.0" xmlns="http://www.w3.org/2000/svg"
 width="420.000000pt" height="594.000000pt" viewBox="0 0 420.000000 594.000000"
 preserveAspectRatio="xMidYMid meet">

<g transform="translate(0.000000,594.000000) scale(0.100000,-0.100000)"
fill="#000000" stroke="none">
<path d="M1995 3692 c-3 -3 15 -43 40 -89 48 -89 49 -87 -18 -97 -101 -14
-213 -96 -266 -195 -145 -273 138 -582 455 -497 78 21 151 65 200 121 59 66
84 136 84 229 0 107 -35 171 -164 299 -75 75 -92 96 -66 82 84 -43 178 -133
215 -205 51 -100 51 -225 -1 -340 l-24 -55 25 28 c45 50 67 146 66 287 0 104
3 132 19 165 21 44 62 73 119 86 l36 7 -25 -16 c-43 -29 -110 -94 -110 -107 0
-18 25 -25 63 -18 49 9 78 27 131 83 27 28 62 58 78 68 15 9 28 20 28 24 0 12
-155 10 -205 -3 -31 -8 -52 -22 -75 -50 -17 -21 -37 -39 -45 -39 -8 0 -22 -14
-31 -32 -15 -29 -17 -30 -27 -12 -26 47 -124 147 -176 178 -87 53 -305 118
-326 98z m141 -249 c69 -91 193 -178 281 -197 27 -6 33 -13 39 -43 24 -130
-63 -277 -201 -338 -175 -78 -402 -1 -482 163 -23 47 -28 70 -28 132 0 64 5
83 30 129 59 107 184 186 301 190 25 1 37 -6 60 -36z"/>
<path d="M2100 3349 c0 -11 5 -17 10 -14 6 3 10 13 10 21 0 8 -4 14 -10 14 -5
0 -10 -9 -10 -21z"/>
<path d="M2072 3330 c26 -20 44 -70 25 -70 -6 0 -18 6 -27 13 -9 6 -6 3 5 -8
28 -28 36 -49 29 -84 l-6 -29 -35 20 c-32 20 -42 33 -57 82 -10 31 -16 12 -7
-21 l9 -31 -27 16 c-15 8 -28 24 -28 35 -1 11 -6 24 -11 29 -6 6 -8 -1 -4 -17
4 -25 3 -26 -16 -16 -25 13 -32 14 -32 2 0 -5 10 -11 22 -15 22 -5 22 -6 3
-21 -19 -15 -19 -15 7 -9 38 8 68 -3 61 -24 -5 -13 -3 -14 7 -5 9 8 21 6 49
-10 52 -30 56 -37 60 -83 2 -35 -3 -46 -29 -73 -17 -17 -36 -31 -41 -31 -5 0
-9 -5 -9 -11 0 -6 18 4 40 21 39 31 40 31 40 9 0 -12 -10 -34 -22 -48 -15 -16
-16 -20 -5 -11 16 12 20 12 27 0 5 -8 6 -18 4 -22 -3 -4 0 -8 5 -8 6 0 11 9
11 19 0 11 6 22 13 24 10 4 10 6 0 6 -14 1 -18 51 -5 51 4 0 20 -11 35 -25 15
-14 27 -21 27 -15 0 5 -17 22 -37 37 -33 25 -38 33 -38 71 -1 23 3 42 7 42 20
0 73 -42 85 -67 9 -20 11 -21 7 -5 -3 12 -2 22 1 22 17 0 45 -22 45 -35 0 -18
16 -20 23 -2 4 8 8 8 14 2 4 -5 15 -11 23 -13 10 -1 9 3 -5 14 -11 8 -19 20
-17 26 2 6 -4 8 -13 4 -19 -7 -58 11 -50 23 2 5 22 12 42 16 21 4 33 9 28 11
-6 3 -32 -2 -58 -10 -27 -8 -49 -10 -53 -5 -3 5 -10 7 -15 4 -5 -4 -9 -1 -9 5
0 6 -4 9 -9 6 -14 -9 -23 27 -9 36 37 24 112 58 129 58 11 0 18 4 14 9 -3 5 4
12 15 16 11 3 20 11 20 17 0 6 -7 7 -17 3 -10 -4 -24 -8 -32 -8 -8 0 -23 -9
-33 -19 -25 -25 -40 -14 -27 20 7 19 7 24 0 17 -9 -9 -17 -37 -20 -67 -1 -7
-70 -40 -81 -38 -3 0 -4 17 -2 38 2 27 11 45 37 70 43 40 46 53 4 18 -17 -14
-35 -24 -39 -21 -10 6 -3 32 14 54 9 12 7 13 -11 9 -12 -3 -30 0 -40 8 -29 21
-38 16 -11 -6z"/>
<path d="M1980 3290 c0 -5 5 -10 10 -10 6 0 10 5 10 10 0 6 -4 10 -10 10 -5 0
-10 -4 -10 -10z"/>
<path d="M1930 3170 c-21 -7 -21 -8 -5 -9 11 0 27 4 35 9 18 11 5 11 -30 0z"/>
<path d="M2250 3170 c14 -4 34 -8 45 -8 16 0 15 2 -5 8 -14 4 -34 8 -45 8 -16
0 -15 -2 5 -8z"/>
<path d="M2051 3113 c-20 -14 -32 -15 -75 -6 -28 6 -53 9 -55 7 -2 -2 10 -7
28 -10 42 -9 34 -29 -13 -29 -30 0 -34 -2 -21 -12 14 -10 14 -13 -7 -27 -36
-25 -11 -19 38 10 25 15 48 24 51 20 4 -3 2 -22 -4 -41 -6 -19 -8 -35 -4 -35
4 0 14 21 22 48 10 34 22 51 42 60 15 7 27 17 27 23 0 12 -2 12 -29 -8z"/>
<path d="M2310 3069 c0 -5 5 -7 10 -4 6 3 10 8 10 11 0 2 -4 4 -10 4 -5 0 -10
-5 -10 -11z"/>
<path d="M1940 3020 c0 -11 2 -20 4 -20 2 0 6 9 9 20 3 11 1 20 -4 20 -5 0 -9
-9 -9 -20z"/>
<path d="M2215 3010 c3 -5 8 -10 11 -10 2 0 4 5 4 10 0 6 -5 10 -11 10 -5 0
-7 -4 -4 -10z"/>
<path d="M2450 3608 c-25 -27 -25 -54 0 -95 27 -46 77 -46 114 -2 31 37 33 68
6 97 -28 30 -92 30 -120 0z"/>
<path d="M1000 2706 c0 -8 5 -18 10 -21 6 -3 10 -23 10 -43 l0 -37 -18 34
c-17 35 -46 60 -57 49 -12 -12 9 -60 31 -70 20 -9 24 -19 26 -72 3 -55 5 -61
23 -58 27 5 26 2 12 59 -11 42 -11 50 0 46 8 -3 13 3 13 18 0 20 6 16 30 -23
17 -27 36 -48 44 -48 8 0 27 21 43 48 l28 47 5 -75 c4 -66 7 -75 24 -75 18 0
20 9 24 118 l3 117 -28 0 c-22 0 -34 -10 -61 -50 -17 -28 -36 -50 -41 -50 -6
0 -22 23 -37 50 -23 42 -32 50 -56 50 -18 0 -28 -5 -28 -14z"/>
<path d="M1341 2703 c-5 -10 -22 -56 -39 -103 -17 -47 -33 -93 -37 -103 -7
-16 -3 -18 21 -15 21 2 30 9 32 26 3 19 9 22 53 22 44 0 51 -3 59 -25 7 -19
17 -25 40 -25 16 0 30 3 30 7 0 6 -46 139 -72 206 -8 22 -17 27 -44 27 -22 0
-37 -6 -43 -17z m55 -101 c6 -30 4 -32 -20 -32 -29 0 -32 13 -16 56 13 32 27
23 36 -24z"/>
<path d="M1520 2600 c0 -120 0 -121 23 -118 20 3 22 8 22 70 0 37 4 68 8 68 5
1 30 -29 55 -67 37 -53 53 -68 72 -68 l25 0 0 115 c0 108 -1 115 -20 115 -17
0 -21 -8 -25 -65 l-5 -65 -45 65 c-38 54 -51 66 -78 68 l-32 3 0 -121z"/>
<path d="M1770 2600 l0 -120 48 0 c103 0 159 36 169 108 11 82 -48 132 -156
132 l-61 0 0 -120z m143 48 c14 -16 17 -32 13 -57 -7 -43 -24 -61 -62 -64
l-29 -2 -3 79 -3 79 33 -7 c18 -3 41 -16 51 -28z"/>
<path d="M2066 2712 c-10 -16 -76 -207 -76 -219 0 -25 39 -14 46 12 6 23 11
25 59 25 45 0 53 -3 58 -21 4 -15 12 -20 29 -17 31 4 28 29 -12 141 -31 86
-32 87 -65 87 -19 0 -36 -4 -39 -8z m49 -94 c16 -39 12 -48 -21 -48 -26 0 -30
13 -14 54 12 34 18 33 35 -6z"/>
<path d="M2248 2663 c-1 -32 -2 -85 -2 -118 l0 -60 32 -2 c32 -1 32 -1 32 48
l0 49 50 0 c44 0 50 3 50 21 0 18 -5 20 -52 18 -52 -3 -52 -3 -52 26 0 30 0
30 67 33 59 3 67 5 67 22 0 18 -7 20 -95 20 l-95 0 -2 -57z"/>
<path d="M2461 2600 c0 -118 1 -120 22 -116 12 3 25 5 30 5 4 1 7 21 7 46 0
42 2 45 25 45 21 0 29 -9 45 -45 17 -39 23 -45 50 -45 34 0 34 0 18 35 -7 16
-17 24 -26 20 -12 -4 -12 -2 -4 8 7 8 9 17 6 20 -4 3 5 20 19 36 30 36 26 62
-11 91 -20 16 -40 20 -103 20 l-77 0 -1 -120z m137 80 c1 -2 8 -3 15 -4 6 -1
10 -8 8 -16 -2 -8 -4 -20 -4 -26 0 -13 -72 -34 -85 -25 -5 3 -11 22 -14 41
l-6 35 42 -2 c22 -1 42 -2 44 -3z m-88 -46 c0 -8 -19 -13 -24 -6 -3 5 1 9 9 9
8 0 15 -2 15 -3z"/>
<path d="M2713 2605 l2 -117 92 -1 c83 -2 92 0 97 17 5 18 6 18 32 2 98 -65
239 19 159 94 -14 13 -25 20 -25 16 0 -5 -7 -3 -15 4 -9 7 -18 10 -22 7 -7 -8
-63 21 -63 32 0 5 6 14 14 20 16 14 59 24 52 12 -10 -16 40 -34 60 -22 11 6
14 11 6 11 -7 0 -10 5 -6 12 5 7 0 9 -14 6 -14 -4 -19 -2 -16 7 4 10 -7 13
-42 13 -50 0 -109 -22 -99 -38 3 -5 1 -11 -5 -15 -5 -3 -10 -11 -10 -16 0 -6
4 -7 10 -4 5 3 7 0 4 -8 -3 -8 3 -20 12 -28 16 -12 17 -12 10 1 -6 12 -5 12 6
-1 7 -9 33 -22 58 -30 33 -10 45 -19 45 -34 0 -29 -72 -40 -88 -14 -12 19 -37
26 -37 11 0 -4 -32 -9 -72 -11 -40 -1 -76 -5 -80 -7 -4 -3 -8 9 -8 25 0 31 0
31 55 31 49 0 55 2 55 21 0 19 -5 21 -50 17 -45 -3 -51 -1 -56 19 -9 35 3 43
67 43 52 0 60 2 57 18 -3 14 -17 17 -96 20 l-92 3 3 -116z"/>
<path d="M3152 2602 c-1 -102 0 -113 16 -110 9 1 23 -1 30 -6 11 -6 13 2 11
40 l-3 49 49 0 c37 0 49 -4 47 -14 -2 -8 3 -11 12 -8 12 5 11 1 -2 -23 -19
-32 -18 -35 21 -44 l27 -6 0 120 0 120 -30 0 c-29 0 -30 -1 -30 -49 l0 -49
-48 1 -49 1 5 48 5 49 -30 -3 -30 -2 -1 -114z"/>
</g>
</svg>
